HIERARCHY
ROOT pelvis
{
  OFFSET 0 100 0
  CHANNELS 6 Xposition Yposition Zposition Zrotation Xrotation Yrotation
  JOINT pelvis_right_femur
  {
    OFFSET -10.78128 -3.44521 -0.5502486
    CHANNELS 3 Zrotation Xrotation Yrotation
    JOINT right_femur_tibia
    {
      OFFSET -0.8047443 -44.0398 -0.1307829
      CHANNELS 3 Zrotation Xrotation Yrotation
      JOINT right_tibia_foot
      {
        OFFSET 3.006224 -47.83518 -5
        CHANNELS 3 Zrotation Xrotation Yrotation
        End Site
        {
          OFFSET 0 -5 15
        }
      }
    }
  }
  JOINT pelvis_left_femur
  {
    OFFSET 10.78128 -3.44521 -0.5502486
    CHANNELS 3 Zrotation Xrotation Yrotation
    JOINT left_femur_tibia
    {
      OFFSET 0.8047443 -44.0398 -0.1307829
      CHANNELS 3 Zrotation Xrotation Yrotation
      JOINT left_tibia_foot
      {
        OFFSET -4.370144 -48.10324 -4.275266
        CHANNELS 3 Zrotation Xrotation Yrotation
        End Site
        {
          OFFSET 0 -5 15
        }
      }
    }
  }
  JOINT pelvis_spine1
  {
    OFFSET 0 6.468898 -3.129235
    CHANNELS 3 Zrotation Xrotation Yrotation
    JOINT spine1
    {
      OFFSET 0 23.15396 4.99043
      CHANNELS 3 Zrotation Xrotation Yrotation
      JOINT spine2
      {
        OFFSET 0 20.79997 -5.064912
        CHANNELS 3 Zrotation Xrotation Yrotation
        JOINT neck
        {
          OFFSET 0 14.38658 9.616178
          CHANNELS 3 Zrotation Xrotation Yrotation
          End Site
          {
            OFFSET 0 20 0
          }
        }
      }
      JOINT right_manubrium
      {
        OFFSET -5.722621 16.35077 3.967754
        CHANNELS 3 Zrotation Xrotation Yrotation
        JOINT right_clavicle
        {
          OFFSET -13.16364 1.694482 -4.693211
          CHANNELS 3 Zrotation Xrotation Yrotation
          JOINT right_humerus
          {
            OFFSET -28.5034 -0.3100689 -2.792744
            CHANNELS 3 Zrotation Xrotation Yrotation
            JOINT right_radius
            {
              OFFSET -25.15693 0.02248979 -1.271978
              CHANNELS 3 Zrotation Xrotation Yrotation
              End Site
              {
                OFFSET -15 0 0
              }
            }
          }
        }
      }
      JOINT left_manubrium
      {
        OFFSET 5.722621 16.35077 3.967754
        CHANNELS 3 Zrotation Xrotation Yrotation
        JOINT left_clavicle
        {
          OFFSET 13.16364 1.694482 -4.693211
          CHANNELS 3 Zrotation Xrotation Yrotation
          JOINT left_humerus
          {
            OFFSET 29.39168 -1.063119 -2.237045
            CHANNELS 3 Zrotation Xrotation Yrotation
            JOINT left_radius
            {
              OFFSET 24.59957 -0.9528479 0.9047498
              CHANNELS 3 Zrotation Xrotation Yrotation
              End Site
              {
                OFFSET 15 -0 -0
              }
            }
          }
        }
      }
    }
  }
}
MOTION
Frames: 19
Frame Time: 0.0416666666667
-316.0497 85.46186 658.2155 -24.10626 -0.7354754 -84.02527 8.20512 17.23554 -0.6410191 -0 33.51353 -0 -11.15283 0.746683 -7.522166 3.435313 3.482084 -7.367296 -0 18.41844 -0 -7.03713 -6.282433 12.49565 5.522459 -3.643442 4.945971 -1.883661 19.00108 -4.055675 4.872824 21.22065 -3.127257 -4.611687 -16.90352 5.173565 -15.21511 -37.04931 8.153344 108.4494 -12.08361 -8.242059 -0 0 31.70404 -27.70777 16.365 16.15518 -2.523743 -19.17495 -15.64571 -102.0689 20.26694 45.1125 0 0 -6.701968 -17.47005 13.99624 33.71999
-322.2266 85.49669 659.9449 -24.09685 -0.3337938 -84.91501 8.201838 17.24027 -0.6388167 -0 33.50068 -0 -11.15215 0.7351822 -7.513855 3.433966 3.459937 -7.366971 -0 18.39721 -0 -7.034486 -6.282482 12.50271 5.518174 -3.640138 4.946746 -1.88057 18.99171 -4.055046 4.870963 21.22071 -3.121018 -4.607709 -16.9108 5.176838 -15.20404 -37.0405 8.153603 108.4247 -12.05372 -8.240235 -0 0 31.7016 -27.69911 16.35974 16.15453 -2.515959 -19.17002 -15.62966 -102.0684 20.26496 45.10462 0 0 -6.686712 -17.44806 13.99657 33.69407
-328.4333 85.52995 661.5693 -24.08544 0.06681355 -85.8048 8.198647 17.24545 -0.6397301 -0 33.49087 -0 -11.1526 0.7306304 -7.505596 3.431774 3.443481 -7.367947 -0 18.37886 -0 -7.037516 -6.285308 12.50886 5.514554 -3.635691 4.946039 -1.878221 18.98176 -4.053107 4.87001 21.22298 -3.114957 -4.603712 -16.91721 5.180448 -15.19684 -37.03085 8.152548 108.4061 -12.03117 -8.236895 -0 0 31.69633 -27.69243 16.35124 16.15355 -2.508249 -19.16425 -15.61596 -102.0712 20.26719 45.09674 0 0 -6.669831 -17.4328 13.99562 33.67578
-334.668 85.56196 663.0879 -24.07318 0.4662687 -86.69469 8.195835 17.25059 -0.6435929 -0 33.48495 -0 -11.15411 0.7332642 -7.498139 3.428959 3.434064 -7.370101 -0 18.36497 -0 -7.045797 -6.290585 12.51356 5.511912 -3.630534 4.943952 -1.876809 18.97215 -4.050068 4.87003 21.22719 -3.10962 -4.600058 -16.92218 5.184062 -15.19404 -37.02127 8.15031 108.3952 -12.01783 -8.232388 -0 0 31.6888 -27.68829 16.34035 16.15234 -2.501309 -19.15817 -15.60577 -102.0766 20.27329 45.0896 0 0 -6.652894 -17.42548 13.99353 33.66658
-340.9289 85.59313 664.5003 -24.06071 0.8646267 -87.5847 8.193649 17.25523 -0.6499781 -0 33.48334 -0 -11.15652 0.7426618 -7.492138 3.425793 3.432359 -7.373208 -0 18.3567 -0 -7.058443 -6.297771 12.51643 5.510464 -3.625151 4.940709 -1.876436 18.96375 -4.046233 4.870996 21.23292 -3.105473 -4.597072 -16.92532 5.187349 -15.1958 -37.01262 8.147126 108.3927 -12.01467 -8.227159 -0 0 31.67975 -27.68699 16.32812 16.151 -2.49575 -19.15234 -15.59995 -102.0844 20.28262 45.08381 0 0 -6.637435 -17.42656 13.99051 33.66707
-347.2143 85.62393 665.8058 -24.04811 1.262041 -88.47486 8.192273 17.25895 -0.658244 -0 33.48609 -0 -11.15959 0.7577986 -7.488099 3.422576 3.438328 -7.37696 -0 18.35464 -0 -7.0742 -6.306168 12.51724 5.510313 -3.620035 4.936632 -1.877109 18.95729 -4.041972 4.872794 21.23959 -3.102861 -4.595008 -16.92637 5.190021 -15.20183 -37.00567 8.14331 108.3987 -12.02172 -8.2217 -0 0 31.67005 -27.68858 16.3157 16.14967 -2.49204 -19.1473 -15.5989 -102.0936 20.29425 45.07989 0 0 -6.624817 -17.43571 13.98687 33.67696
-353.5219 85.65488 667.004 -24.0349 1.658722 -89.36518 8.191812 17.26143 -0.6675963 -0 33.49283 -0 -11.16303 0.7771553 -7.486337 3.419604 3.451237 -7.380999 -0 18.3588 -0 -7.091563 -6.314984 12.51596 5.51144 -3.615641 4.93211 -1.87874 18.9533 -4.037683 4.87524 21.24659 -3.101983 -4.59403 -16.9253 5.191848 -15.21148 -37.00101 8.139224 108.4124 -12.03809 -8.21651 -0 0 31.66059 -27.69284 16.30422 16.14846 -2.49047 -19.14347 -15.6026 -102.1033 20.30706 45.07813 0 0 -6.616119 -17.45193 13.98294 33.69512
-359.8498 85.68644 668.0943 -24.0201 2.054889 -90.25573 8.192288 17.26248 -0.6771628 -0 33.50284 -0 -11.16652 0.7988677 -7.486954 3.417142 3.469746 -7.384949 -0 18.36866 -0 -7.10892 -6.323407 12.51275 5.513714 -3.61235 4.927562 -1.881157 18.95209 -4.033756 4.878094 21.25326 -3.102876 -4.594202 -16.92226 5.192686 -15.22379 -36.999 8.135247 108.4323 -12.06204 -8.212047 -0 0 31.65222 -27.69932 16.29469 16.14749 -2.491131 -19.14118 -15.6106 -102.1128 20.31988 45.07865 0 0 -6.612039 -17.47355 13.97909 33.7197
-366.1956 85.71902 669.0763 -24.00234 2.450728 -91.14658 8.193633 17.26203 -0.686072 -0 33.51513 -0 -11.16974 0.8209036 -7.489836 3.415404 3.492037 -7.388452 -0 18.38317 -0 -7.124697 -6.330682 12.50797 5.516898 -3.610436 4.923403 -1.884122 18.95369 -4.030539 4.881089 21.25902 -3.105414 -4.595478 -16.91757 5.19248 -15.23758 -36.99975 8.131735 108.4566 -12.09124 -8.208693 -0 0 31.64567 -27.70738 16.28794 16.14684 -2.493908 -19.14059 -15.62207 -102.1211 20.33152 45.08133 0 0 -6.612842 -17.4985 13.97564 33.74832
-372.5571 85.75292 669.9498 -23.97997 2.846359 -92.03784 8.195704 17.26018 -0.6935309 -0 33.52851 -0 -11.17239 0.8412509 -7.494666 3.414528 3.515994 -7.391202 -0 18.4009 -0 -7.137497 -6.336173 12.50208 5.520682 -3.610041 4.920001 -1.887351 18.9579 -4.028307 4.883948 21.26336 -3.109328 -4.597717 -16.9117 5.191276 -15.25155 -37.00315 8.128995 108.4828 -12.12288 -8.206721 -0 0 31.64149 -27.71625 16.28451 16.14656 -2.498499 -19.14172 -15.63588 -102.1276 20.34098 45.08589 0 0 -6.618341 -17.52442 13.97291 33.77829
-378.9322 85.78832 670.7145 -23.95125 3.241809 -92.92965 8.198294 17.25712 -0.6988946 -0 33.54174 -0 -11.17426 0.8580988 -7.500961 3.414571 3.539395 -7.392967 -0 18.42018 -0 -7.146224 -6.339422 12.49564 5.524705 -3.611166 4.91765 -1.890548 18.96426 -4.027239 4.886415 21.26592 -3.114229 -4.60069 -16.9052 5.189206 -15.26444 -37.0088 8.127254 108.5087 -12.15404 -8.206278 -0 0 31.64001 -27.72511 16.28463 16.14666 -2.504444 -19.14443 -15.65072 -102.1316 20.34744 45.09185 0 0 -6.627924 -17.54894 13.97112 33.80684
-385.3186 85.82526 671.3703 -23.91445 3.637002 -93.82218 8.201152 17.25317 -0.7017221 -0 33.55363 -0 -11.17518 0.8699986 -7.508114 3.415505 3.560124 -7.393612 -0 18.43923 -0 -7.150179 -6.340187 12.48928 5.528594 -3.613673 4.916541 -1.893421 18.97215 -4.027402 4.888277 21.26651 -3.119648 -4.604109 -16.89869 5.186481 -15.27509 -37.01615 8.126648 108.5317 -12.18189 -8.207368 -0 0 31.64129 -27.73314 16.2882 16.14713 -2.511169 -19.14843 -15.66522 -102.1328 20.35038 45.09865 0 0 -6.640618 -17.56985 13.97042 33.83141
-391.7142 85.86364 671.9171 -23.8681 4.031768 -94.71563 8.204013 17.24872 -0.7018135 -0 33.56313 -0 -11.1751 0.8759864 -7.515454 3.41722 3.576352 -7.393108 -0 18.4563 -0 -7.149113 -6.338457 12.48355 5.531997 -3.617301 4.916745 -1.895717 18.98082 -4.028753 4.889378 21.26513 -3.125079 -4.607652 -16.89275 5.183366 -15.2826 -37.02447 8.127204 108.55 -12.20397 -8.209861 -0 0 31.64515 -27.73964 16.29482 16.14791 -2.518041 -19.15332 -15.67806 -102.1313 20.34963 45.10563 0 0 -6.655186 -17.58533 13.97085 33.84984
-398.1171 85.90321 672.355 -23.81102 4.425851 -95.61019 8.206613 17.24418 -0.6992237 -0 33.56944 -0 -11.17405 0.8756608 -7.522308 3.419541 3.586707 -7.391528 -0 18.46991 -0 -7.143241 -6.334452 12.47899 5.534616 -3.621692 4.918213 -1.897241 18.98945 -4.031139 4.889637 21.26194 -3.130026 -4.610993 -16.88791 5.180155 -15.28634 -37.033 8.128843 108.5619 -12.21842 -8.2135 -0 0 31.65118 -27.74405 16.30381 16.14893 -2.524429 -19.15863 -15.68811 -102.1272 20.34532 45.11217 0 0 -6.670247 -17.5941 13.97235 33.86061
-404.5254 85.94365 672.6838 -23.74253 4.818945 -96.50604 8.208724 17.23996 -0.6942532 -0 33.57208 -0 -11.17214 0.8692063 -7.528062 3.422241 3.590386 -7.389043 -0 18.47889 -0 -7.133217 -6.328594 12.47596 5.53623 -3.626424 4.92078 -1.897871 18.99725 -4.034318 4.889051 21.25729 -3.134049 -4.613832 -16.88459 5.177144 -15.28608 -37.04094 8.131392 108.5665 -12.22409 -8.21793 -0 0 31.65878 -27.74601 16.31429 16.15008 -2.529761 -19.16387 -15.69451 -102.121 20.33794 45.11767 0 0 -6.684409 -17.59551 13.97477 33.86291
-410.9372 85.98455 672.9038 -23.66239 5.210725 -97.40333 8.210165 17.23644 -0.6874149 -0 33.57088 -0 -11.16958 0.8573628 -7.532216 3.425068 3.587217 -7.385901 -0 18.48252 -0 -7.12006 -6.321465 12.47471 5.536719 -3.631055 4.924182 -1.897571 19.00354 -4.03798 4.887692 21.25162 -3.136803 -4.615921 -16.88307 5.174603 -15.28192 -37.04759 8.134598 108.5635 -12.22069 -8.222728 -0 0 31.66722 -27.7454 16.32527 16.15126 -2.533576 -19.16857 -15.69677 -102.1132 20.32824 45.12167 0 0 -6.696399 -17.58962 13.97785 33.85673
-417.3509 86.02547 673.0149 -23.5709 5.600881 -98.30217 8.210822 17.23391 -0.6793819 -0 33.56606 -0 -11.16662 0.8413445 -7.534428 3.427761 3.577661 -7.382404 -0 18.4806 -0 -7.105053 -6.313746 12.4753 5.536067 -3.635164 4.928088 -1.89639 19.00778 -4.04178 4.885704 21.24549 -3.138067 -4.617091 -16.88342 5.172752 -15.27434 -37.05237 8.138152 108.5535 -12.20874 -8.227445 -0 0 31.67571 -27.74235 16.33574 16.15236 -2.535561 -19.1723 -15.6948 -102.1047 20.31717 45.12383 0 0 -6.705178 -17.57715 13.98131 33.84286
-423.7649 86.06598 673.0172 -23.46884 5.989156 -99.20263 8.210656 17.23258 -0.6709207 -0 33.55813 -0 -11.16353 0.822717 -7.534542 3.43008 3.562751 -7.37888 -0 18.47343 -0 -7.089616 -6.306159 12.47762 5.534362 -3.638388 4.932125 -1.894459 19.00962 -4.045367 4.883283 21.23947 -3.137764 -4.617256 -16.88558 5.171741 -15.26413 -37.05489 8.14172 108.5375 -12.18956 -8.231648 -0 0 31.68347 -27.73719 16.34475 16.15328 -2.535583 -19.17476 -15.68886 -102.0962 20.30576 45.12401 0 0 -6.710029 -17.5594 13.9848 33.82275
-430.1777 86.1057 672.9107 -23.35736 6.375369 -100.1047 8.209703 17.23254 -0.6628167 -0 33.54789 -0 -11.16061 0.803245 -7.532602 3.431824 3.543986 -7.375648 -0 18.4618 -0 -7.075171 -6.299392 12.48143 5.531787 -3.640456 4.935923 -1.891972 19.00897 -4.04842 4.880661 21.23409 -3.13596 -4.616428 -16.88931 5.171641 -15.25228 -37.05498 8.144976 108.5171 -12.16508 -8.234962 -0 0 31.6898 -27.73045 16.35152 16.15394 -2.53369 -19.17574 -15.67962 -102.0885 20.29508 45.12224 0 0 -6.710612 -17.53813 13.98801 33.79841
